<svg width="816" height="143" viewBox="0 0 816 143" fill="none" xmlns="http://www.w3.org/2000/svg">
<g clip-path="url(#clip0_1_2)">
<path d="M107.6 65.4C107.4 60.2 105.9 55.1 103.3 50.5L79.8 9.9C78 6.8 76.8 3.5 76.1 0L75.1 1.7C69.3 11.8 69.3 24.2 75.1 34.3L93.9 66.9C99.7 77 99.7 89.4 93.9 99.5L92.9 101.2C92.2 97.7 91 94.4 89.2 91.4L72 61.5L61 42.5C59.2 39.4 58 36.1 57.3 32.7L56.3 34.4C50.5 44.4 50.5 56.8 56.2 66.9L75.1 99.5C80.9 109.6 80.9 122 75.1 132.1L74.1 133.8C73.4 130.3 72.1 127 70.4 124L46.9 83.2C43.8 77.8 42.3 71.7 42.6 65.5C17.4 72 0 86 0 102.2C0 124.7 33.6 142.9 75.1 142.9C116.6 142.9 150.2 124.7 150.2 102.2C150.2 86 132.8 72 107.6 65.4ZM178.5 135C178.7 130.1 179.6 125.3 181.2 120.8C189.3 124.4 198.1 126.2 207 126.3C220.1 126.3 227.4 122.1 227.4 113.7C227.4 105.3 222 101.7 208.8 95.9L201.6 92.8C188.3 87 179.3 79.5 179.3 64.6C179.3 48.5 190.4 38.2 213.3 38.2C222.1 38.1 230.8 39.5 239.1 42.3C238.8 47.1 237.8 51.8 236.3 56.4C228.9 53.8 221.1 52.4 213.2 52.3C200.9 52.3 195.3 57.1 195.3 64.6C195.3 72.1 200.8 76.2 210.7 80.4L218.3 83.6C236.2 91.2 243.7 99.3 243.7 113C243.7 129.2 231.4 140.4 207.5 140.4C195.9 140.4 186.4 138.7 178.5 135ZM319.5 67.6V138.1H305.3L304.5 129.6C300.5 135.8 294.5 139.7 284.6 139.7C266 139.7 253.6 126.2 253.6 102.5C253.6 77.7 266.9 63.6 293 63.6C303 63.6 311.3 64.7 319.5 67.6ZM303.9 122V77.7C300.2 77.1 296.5 76.8 292.8 76.9C276.7 76.9 269.3 86.8 269.3 102.6C269.3 117 275.1 127.1 288.9 127.1C294.3 127.1 299.6 125.3 303.9 122ZM398.9 90.7V138.1H383.4V93.4C383.4 82.3 379.7 76.9 364.2 76.9C360.1 77 356 77.3 351.9 78V138.1H336.4V67.6C346.3 65.2 357.1 63.7 364.6 63.7C390.5 63.6 398.9 73.6 398.9 90.7ZM441.9 126.5C446 126.5 450.1 125.8 454 124.4C453.6 128.6 453 133.4 452.2 137.5C448 139.1 443.6 139.8 439.1 139.7C424 139.7 414.4 132.8 414.4 115.6V41.6C419.4 40.1 424.7 39.3 429.9 39.3V66H454.4C454.2 70.4 453.7 74.9 453 79.3H429.9V113.9C429.9 123 434.4 126.5 441.9 126.5ZM525.1 67.5V138H510.9L510 129.5C506 135.7 500 139.6 490.1 139.6C471.5 139.6 459.1 126.1 459.1 102.4C459.1 77.6 472.4 63.5 498.5 63.5C508.6 63.6 516.9 64.7 525.1 67.5ZM509.6 122V77.7C505.9 77.1 502.2 76.8 498.5 76.9C482.4 76.9 474.9 86.8 474.9 102.6C474.9 117 480.7 127.1 494.5 127.1C500 127.1 505.3 125.3 509.6 122ZM604.5 90.7V138.1H589V93.4C589 82.3 585.3 76.9 569.8 76.9C565.7 77 561.6 77.3 557.6 78V138.1H542V67.6C551.9 65.2 562.7 63.7 570.2 63.7C596.2 63.6 604.5 73.6 604.5 90.7ZM683.2 39.3V138H669L668.2 129C664.2 135.6 658.2 139.7 648 139.7C629.4 139.7 617 126.2 617 102.5C617 77.7 630.3 63.6 656.3 63.6C660.2 63.6 664.1 64 667.9 64.7V41.5C672.7 39.8 678.2 39.3 683.2 39.3ZM667.9 121.7V78.3C663.8 77.4 659.7 76.9 655.5 76.9C640.1 76.9 632.8 86.5 632.8 102.6C632.8 117 638.6 127.1 652.4 127.1C658 127.1 663.5 125.2 667.9 121.7ZM761.3 107.9H711.8C713.8 120.5 721.1 126.5 734.9 126.5C743.5 126.5 751.9 124.7 759.7 121.1C759.1 125.2 758.3 130.6 757.3 135.2C750.2 138.4 742.8 139.7 734.5 139.7C708.5 139.7 696 125.3 696 101.2C696 80.2 705.7 63.5 730.4 63.5C752.5 63.5 762.1 78 762.1 95.8C762.1 99.9 761.8 103.9 761.3 107.9ZM711.5 94.9H746.5C746.5 83.3 740.3 76.6 729.6 76.6C718.5 76.6 712.7 82.9 711.5 94.9ZM815.6 64.2C815.6 68.7 815.2 73.1 814.2 77.5C810.3 77.1 806.4 76.9 802.5 76.9C798.7 76.9 794.9 77.2 791.1 77.7V138.1H775.6V67.6C782.2 65.4 793.4 63.7 802.1 63.7C806.5 63.6 811.1 63.8 815.6 64.2Z" fill="white"/>
</g>
<defs>
<clipPath id="clip0_1_2">
<rect width="815.6" height="142.9" fill="white"/>
</clipPath>
</defs>
</svg>
